<?xml version="1.0" encoding="utf-8"?>
<!-- Generator: Adobe Illustrator 25.0.0, SVG Export Plug-In . SVG Version: 6.00 Build 0)  -->
<svg version="1.1" xmlns="http://www.w3.org/2000/svg" xmlns:xlink="http://www.w3.org/1999/xlink" x="0px" y="0px"
	 viewBox="0 0 42 42" style="enable-background:new 0 0 42 42;" xml:space="preserve">
<style type="text/css">
	.st0{fill:#FFFFFF;}
	.st1{opacity:0.3;enable-background:new    ;}
	.st2{opacity:0.3;fill:#ECB244;}
	.st3{opacity:0.3;fill:#FFFFFF;enable-background:new    ;}
	.st4{opacity:0.3;fill:#015FAE;}
	.st5{opacity:0.3;fill:#F7A600;}
	.st6{opacity:0.3;fill:#2775CA;}
	.st7{opacity:0.3;fill:#5DC8BB;}
	.st8{opacity:0.3;fill:#C53027;}
	.st9{opacity:0.3;fill:#FCE527;}
	.st10{opacity:0.3;fill:#2C7DF7;}
	.st11{opacity:0.3;fill:#444343;enable-background:new    ;}
	.st12{opacity:0.3;fill:#509B47;}
	.st13{opacity:0.3;}
	.st14{fill:url(#SVGID_1_);}
	.st15{opacity:0.3;fill:#FF9E16;}
	.st16{opacity:0.3;fill:#3BB054;}
	.st17{opacity:0.3;fill:#179BD7;}
	.st18{opacity:0.3;fill:#00C452;}
	.st19{opacity:0.3;fill:#F1A114;}
	.st20{opacity:0.3;fill:#FF6600;}
	.st21{opacity:0.3;fill:#FAB31E;}
	.st22{opacity:0.3;fill:#345D9D;}
	.st23{opacity:0.3;fill:#969B9E;}
	.st24{opacity:0.3;fill:#01C853;}
	.st25{opacity:0.3;fill:#FFB600;}
	.st26{opacity:0.3;fill:#008DE4;}
	.st27{opacity:0.3;fill:#F19620;}
	.st28{opacity:0.3;fill:#F90000;}
	.st29{fill:#F10000;}
	.st30{fill:#F19620;}
	.st31{fill:none;stroke:#F10000;stroke-width:0.25;stroke-miterlimit:10;}
	.st32{fill:#008DE4;}
	.st33{fill:#FFB600;}
	.st34{fill:#01C853;}
	.st35{fill:#009F42;}
	.st36{fill:#007832;}
	.st37{fill:#454749;}
	.st38{fill:#989A9C;}
	.st39{fill:#969B9E;}
	.st40{fill:#0B0809;}
	.st41{fill:#454246;}
	.st42{fill:#434343;}
	.st43{fill:#345D9D;}
	.st44{fill-rule:evenodd;clip-rule:evenodd;fill:#FFFFFF;}
	.st45{fill-rule:evenodd;clip-rule:evenodd;fill:#FAB31E;}
	.st46{fill-rule:evenodd;clip-rule:evenodd;fill:#E40520;}
	.st47{fill-rule:evenodd;clip-rule:evenodd;fill:#06326E;}
	.st48{fill-rule:evenodd;clip-rule:evenodd;fill:#4C4C4C;}
	.st49{fill:#FF6600;}
	.st50{fill:#F4F5F5;}
	.st51{fill:#F1A114;}
	.st52{fill:#62ADE4;}
	.st53{fill:#14C0AF;}
	.st54{fill:#E8EF00;}
	.st55{fill:#009066;}
	.st56{fill:#0096DD;}
	.st57{fill:#00C452;}
	.st58{fill:#A7DB38;}
	.st59{fill:#006036;}
	.st60{fill:#253B80;}
	.st61{fill:#179BD7;}
	.st62{fill:#222D65;}
	.st63{fill:#3BB054;}
	.st64{fill:#0043FA;}
	.st65{fill:#FF9E16;}
	.st66{fill:url(#SVGID_2_);}
	.st67{fill:url(#SVGID_3_);}
	.st68{fill:#2C7DF7;}
	.st69{fill:#FCE527;}
	.st70{fill:#222220;}
	.st71{fill:#C53027;}
	.st72{fill:#5DC8BB;}
	.st73{fill:#5F6161;}
	.st74{fill:#2675CA;}
	.st75{fill:#005098;}
	.st76{fill:#F7A600;}
	.st77{fill:#015FAC;}
	.st78{fill:#ECB244;}
	.st79{fill:#76B729;}
	.st80{fill:none;stroke:#D60000;stroke-width:0.1;stroke-miterlimit:10;}
	.st81{fill:#D60000;}
	.st82{fill:none;stroke:#D60000;stroke-miterlimit:10;}
	.st83{fill:url(#SVGID_4_);}
	.st84{fill:#509B47;}
	.st85{fill:url(#SVGID_5_);}
	
		.st86{fill-rule:evenodd;clip-rule:evenodd;fill:#5F5742;stroke:#E2DFD7;stroke-width:0.3529;stroke-linejoin:round;stroke-miterlimit:2.6131;}
	
		.st87{fill-rule:evenodd;clip-rule:evenodd;fill:#FFFFFF;stroke:#5F5742;stroke-width:9.513900e-02;stroke-linejoin:round;stroke-miterlimit:2.6131;}
	.st88{fill-rule:evenodd;clip-rule:evenodd;fill:#5F5742;}
	.st89{fill-rule:evenodd;clip-rule:evenodd;fill:#204E76;}
	.st90{fill:#F90000;}
</style>
<g id="фон">
</g>
<g id="примеры">
</g>
<g id="лого">
	<g>
		<path class="st65" d="M33.8,34.5c-1.7-1.5-4.8-3.9-11.1-3.2c-0.2,0-0.4,0.1-0.6,0.1c-0.5,0.1-1,0.1-1.5,0.1c-0.2,0-0.5,0-0.7,0
			c-1.2,0-2.3-0.1-3.3-0.4c-5.5-1.6-9.4-7-8.7-13.2c0.7-5.5,5.1-9.9,10.6-10.5c7.3-0.8,13.5,4.9,13.5,12c0,2.5-0.7,4.8-2,6.7
			c0-2.4-1.1-3.8-2.3-4.7c-1.4-1-2.8-1.3-2.8-1.3H28c0-0.2,0-0.4,0-0.6c0-3.5-2.1-6.7-5.5-7.7c-6.9-2.1-13.1,4.6-9.8,11.6
			c1.3,2.7,4.2,4.3,7.3,4.2c0,0,0.1,0,0.1,0v-2.7c0,0,0.6,1.2,1.9,2.4c1,0.9,2.4,1.8,4.4,2.2c0.1,0,0.2,0,0.3,0.1
			c4.1,0.9,6.1,3,7.4,4.7C34.2,34.5,34,34.7,33.8,34.5z"/>
		<path class="st65" d="M27.2,28.2c-0.3,0.4-1,0.3-1.5-0.1c-0.5-0.4-0.7-1.1-0.4-1.5c0.3-0.4,1-0.3,1.5,0.1
			C27.4,27.2,27.5,27.9,27.2,28.2z"/>
		<path class="st65" d="M29.2,26.3c-0.3,0.1-0.7-0.2-0.9-0.7c-0.2-0.5-0.2-1,0.1-1.1c0.3-0.1,0.7,0.2,0.9,0.7
			C29.5,25.6,29.4,26.2,29.2,26.3z"/>
	</g>
</g>
</svg>
