<?xml version="1.0" encoding="utf-8"?>
<!-- Generator: Adobe Illustrator 25.0.0, SVG Export Plug-In . SVG Version: 6.00 Build 0)  -->
<svg version="1.1" xmlns="http://www.w3.org/2000/svg" xmlns:xlink="http://www.w3.org/1999/xlink" x="0px" y="0px"
	 viewBox="0 0 42 42" style="enable-background:new 0 0 42 42;" xml:space="preserve">
<style type="text/css">
	.st0{fill:#FFFFFF;}
	.st1{opacity:0.3;enable-background:new    ;}
	.st2{opacity:0.3;fill:#ECB244;}
	.st3{opacity:0.3;fill:#FFFFFF;enable-background:new    ;}
	.st4{opacity:0.3;fill:#015FAE;}
	.st5{opacity:0.3;fill:#F7A600;}
	.st6{opacity:0.3;fill:#2775CA;}
	.st7{opacity:0.3;fill:#5DC8BB;}
	.st8{opacity:0.3;fill:#C53027;}
	.st9{opacity:0.3;fill:#FCE527;}
	.st10{opacity:0.3;fill:#2C7DF7;}
	.st11{opacity:0.3;fill:#444343;enable-background:new    ;}
	.st12{opacity:0.3;fill:#509B47;}
	.st13{opacity:0.3;}
	.st14{fill:url(#SVGID_1_);}
	.st15{opacity:0.3;fill:#FF9E16;}
	.st16{opacity:0.3;fill:#3BB054;}
	.st17{opacity:0.3;fill:#179BD7;}
	.st18{opacity:0.3;fill:#00C452;}
	.st19{opacity:0.3;fill:#F1A114;}
	.st20{opacity:0.3;fill:#FF6600;}
	.st21{opacity:0.3;fill:#FAB31E;}
	.st22{opacity:0.3;fill:#345D9D;}
	.st23{opacity:0.3;fill:#969B9E;}
	.st24{opacity:0.3;fill:#01C853;}
	.st25{opacity:0.3;fill:#FFB600;}
	.st26{opacity:0.3;fill:#008DE4;}
	.st27{opacity:0.3;fill:#F19620;}
	.st28{opacity:0.3;fill:#F90000;}
	.st29{fill:#F10000;}
	.st30{fill:#F19620;}
	.st31{fill:none;stroke:#F10000;stroke-width:0.25;stroke-miterlimit:10;}
	.st32{fill:#008DE4;}
	.st33{fill:#FFB600;}
	.st34{fill:#01C853;}
	.st35{fill:#009F42;}
	.st36{fill:#007832;}
	.st37{fill:#454749;}
	.st38{fill:#989A9C;}
	.st39{fill:#969B9E;}
	.st40{fill:#0B0809;}
	.st41{fill:#454246;}
	.st42{fill:#434343;}
	.st43{fill:#345D9D;}
	.st44{fill-rule:evenodd;clip-rule:evenodd;fill:#FFFFFF;}
	.st45{fill-rule:evenodd;clip-rule:evenodd;fill:#FAB31E;}
	.st46{fill-rule:evenodd;clip-rule:evenodd;fill:#E40520;}
	.st47{fill-rule:evenodd;clip-rule:evenodd;fill:#06326E;}
	.st48{fill-rule:evenodd;clip-rule:evenodd;fill:#4C4C4C;}
	.st49{fill:#FF6600;}
	.st50{fill:#F4F5F5;}
	.st51{fill:#F1A114;}
	.st52{fill:#62ADE4;}
	.st53{fill:#14C0AF;}
	.st54{fill:#E8EF00;}
	.st55{fill:#009066;}
	.st56{fill:#0096DD;}
	.st57{fill:#00C452;}
	.st58{fill:#A7DB38;}
	.st59{fill:#006036;}
	.st60{fill:#253B80;}
	.st61{fill:#179BD7;}
	.st62{fill:#222D65;}
	.st63{fill:#3BB054;}
	.st64{fill:#0043FA;}
	.st65{fill:#FF9E16;}
	.st66{fill:url(#SVGID_2_);}
	.st67{fill:url(#SVGID_3_);}
	.st68{fill:#2C7DF7;}
	.st69{fill:#FCE527;}
	.st70{fill:#222220;}
	.st71{fill:#C53027;}
	.st72{fill:#5DC8BB;}
	.st73{fill:#5F6161;}
	.st74{fill:#2675CA;}
	.st75{fill:#005098;}
	.st76{fill:#F7A600;}
	.st77{fill:#015FAC;}
	.st78{fill:#ECB244;}
	.st79{fill:#76B729;}
	.st80{fill:none;stroke:#D60000;stroke-width:0.1;stroke-miterlimit:10;}
	.st81{fill:#D60000;}
	.st82{fill:none;stroke:#D60000;stroke-miterlimit:10;}
	.st83{fill:url(#SVGID_4_);}
	.st84{fill:#509B47;}
	.st85{fill:url(#SVGID_5_);}
	
		.st86{fill-rule:evenodd;clip-rule:evenodd;fill:#5F5742;stroke:#E2DFD7;stroke-width:0.3529;stroke-linejoin:round;stroke-miterlimit:2.6131;}
	
		.st87{fill-rule:evenodd;clip-rule:evenodd;fill:#FFFFFF;stroke:#5F5742;stroke-width:9.513900e-02;stroke-linejoin:round;stroke-miterlimit:2.6131;}
	.st88{fill-rule:evenodd;clip-rule:evenodd;fill:#5F5742;}
	.st89{fill-rule:evenodd;clip-rule:evenodd;fill:#204E76;}
	.st90{fill:#F90000;}
</style>
<g id="фон">
</g>
<g id="примеры">
</g>
<g id="лого">
	<g>
		<path class="st0" d="M36.7,20.1l0.4-1.3l-1.4,0c-0.6,0-1.3-0.2-1.8-0.6c0.1,0,0.1,0,0.2,0c0.8,0,1.6-0.5,2-1.2l0.6-1.3
			c-0.5,0-1,0-1.4-0.1c-0.5-0.1-0.9-0.4-1.2-0.7c-0.4-0.4-1-0.7-1.6-0.7c-0.2,0-0.5,0-0.7,0.1c0-0.1,0.1-0.2,0.1-0.3
			c0.1-0.8-0.1-1.6-0.6-2.2l-1-1.3L29.6,12c-0.1,0.2-0.3,0.4-0.5,0.5c-0.1-0.5-0.4-1-0.8-1.4c-0.7-0.7-1.5-1-2.5-1
			c-0.2,0-0.3,0-0.5,0l-1.2,0.2c0.1-0.4,0.3-0.8,0.5-1.2L25.4,8l-1.8,0.2L23.1,7L22,7.6l-1-1l-1,1L18.9,7l-0.6,1.2L16.6,8l0.7,1.1
			c0.2,0.4,0.4,0.8,0.5,1.2l-1.2-0.2h0c-0.2,0-0.3,0-0.5,0c-0.9,0-1.8,0.4-2.5,1c-0.4,0.4-0.7,0.9-0.8,1.4c-0.2-0.1-0.3-0.3-0.5-0.5
			l-0.6-1.5l-1.1,1.3c-0.5,0.6-0.7,1.4-0.6,2.2c0,0.1,0,0.2,0.1,0.3c-0.2-0.1-0.5-0.1-0.7-0.1c-0.6,0-1.2,0.3-1.6,0.7
			c-0.3,0.3-0.7,0.6-1.2,0.7c-0.5,0.1-1,0.1-1.4,0.1l0.6,1.3c0.4,0.8,1.1,1.2,2,1.2c0.1,0,0.1,0,0.2,0c-0.5,0.4-1.1,0.6-1.8,0.6
			l-1.4,0l0.4,1.3c0.3,1.1,1.2,1.8,2.3,2c-0.1,0.7-0.6,1.3-1.2,1.6l-1,0.4l0.6,1c0.5,0.7,1.3,1.2,2.2,1.2c0.2,0,0.5,0,0.7-0.1
			C8.8,26.5,8.9,26.7,9,27c0.2,0.5,0.2,1.1,0,1.6l-0.5,1.1L9.7,30c0.3,0.1,0.5,0.1,0.8,0.1c0.2,0,0.4,0,0.6-0.1
			c0.1,0,0.3-0.1,0.4-0.1c0.1,0.3,0.3,0.5,0.5,0.7c0.7,0.8,1.8,1.1,3.1,1.1l0,0H16l-2,0.8l1.5,0.7c0.6,0.3,1.2,0.6,1.8,0.8l-0.2,0.5
			l0.5,0.2c0.9,0.3,1.8,0.5,2.7,0.6c0,0,0.4,0,0.6,0s0.6,0,0.6,0c0.9,0,1.8-0.2,2.7-0.6l0.5-0.2l-0.2-0.5c0.6-0.2,1.3-0.5,1.9-0.8
			l1.5-0.7l-2-0.8h1c1.3,0,2.4-0.4,3.1-1.1c0.2-0.2,0.4-0.5,0.5-0.7c0.1,0.1,0.3,0.1,0.4,0.1c0.2,0,0.4,0.1,0.6,0.1
			c0.3,0,0.5,0,0.8-0.1l1.2-0.3L33,28.6c-0.2-0.5-0.2-1.1,0-1.7c0.1-0.2,0.2-0.5,0.2-0.7c0.2,0,0.5,0.1,0.7,0.1
			c0.9,0,1.7-0.4,2.2-1.2l0.6-1l-1-0.4c-0.6-0.3-1.1-0.9-1.2-1.6C35.5,21.9,36.4,21.1,36.7,20.1 M17.9,10.8L17.9,10.8L17.9,10.8z"/>
		<path class="st0" d="M21,10.7c-1.1,0-1.9,0.4-2.1,0.8l2.1,0.8l2.1-0.8C23,11.1,22.1,10.7,21,10.7"/>
		<path class="st0" d="M21,32.9L21,32.9c-0.7,0-1.4-0.1-2.1-0.3l-0.6,1.5c1.7,0.5,3.5,0.5,5.2,0l-0.5-1.5
			C22.4,32.9,21.7,32.9,21,32.9"/>
		<path class="st0" d="M25.1,31.5c-0.6,0.3-1.2,0.5-1.8,0.7l0.4,1.2c0.7-0.2,1.4-0.4,2-0.7l-0.9-0.3L25.1,31.5z"/>
		<path class="st0" d="M16.9,31.5l0.3,0.9l-0.9,0.3c0.6,0.3,1.3,0.6,2,0.7l0.4-1.2C18.1,32,17.5,31.8,16.9,31.5"/>
		<path class="st0" d="M21,9.3c0.8,0,1.6,0.2,2.3,0.6c0.1-0.2,0.2-0.5,0.2-0.7l-0.2,0l-0.3,0L22.9,9l-0.3-0.7L22,8.7l-0.2,0.1
			l-0.2-0.2L21,8l-0.6,0.6l-0.2,0.2L20,8.7l-0.6-0.3L19.1,9L19,9.3l-0.3,0l-0.2,0c0.1,0.2,0.2,0.4,0.2,0.7C19.4,9.5,20.2,9.3,21,9.3
			"/>
		<path class="st0" d="M33.8,17.1c0.1,0,0.2,0.1,0.3,0.1c0.5,0,0.9-0.3,1.1-0.7c-0.7-0.1-1.3-0.5-1.8-1c-0.2-0.3-0.5-0.4-0.9-0.4
			c-0.3,0-0.5,0.1-0.7,0.2C32.9,16,33.2,16.9,33.8,17.1"/>
		<path class="st0" d="M7.9,17.2c0.1,0,0.2,0,0.3-0.1c0.6-0.2,0.9-1.2,2-1.8c-0.2-0.1-0.5-0.2-0.7-0.2c-0.3,0-0.7,0.1-0.9,0.4
			c-0.5,0.5-1.1,0.9-1.8,1C7,16.9,7.4,17.2,7.9,17.2"/>
		<path class="st0" d="M34.1,21.1L34.1,21.1c1.2,0,1.6-1.3,1.6-1.3h0c-1.3,0-2.4-0.6-3.2-1.6c-0.8-1-1.5-2-2.8-2.3l-0.1,0l0-0.1
			c0-0.2,0.1-0.4,0.4-0.6c1.8-1.2,0.6-2.7,0.6-2.7s-0.5,1.2-1.7,1.2h-0.1c-0.1,0-0.3,0-0.4,0l-0.2,0c0.2-0.6,0-1.3-0.5-1.7
			c-0.5-0.5-1.1-0.7-1.8-0.7c-0.1,0-0.2,0-0.4,0c0.4,0.5,0.7,1.4,0.2,1.9c-0.4,0.5-1.4,0.5-1.4,1.2c0,0.3,0.3,0.6,0.8,0.9
			c1.5,0.9,2.9,2.2,3.6,3.8c0.8,2.1-0.1,3.4-1.3,4.2c0.3,0.2,0.6,0.4,0.9,0.4c0.1,0,0.2,0,0.3,0c0.6,0,1.3-0.2,1.8-0.6
			c-0.1,0.5-0.3,1.1-0.7,1.5c-0.6,0.7-1.5,1.1-2.4,1.1c0,0.4,0.2,0.7,0.4,1c0.3,0.2,0.7,0.3,1.1,0.4c0,0-1.4,0.3-1.5,2.3
			c0,0.5-0.1,1-0.4,1.5h0c3.2,0,3.1-2.8,3.1-2.8c0.2,0.5,0.6,0.9,1.1,1c0.1,0,0.2,0,0.3,0c0.2,0,0.4,0,0.5-0.1
			c-0.3-0.8-0.3-1.6,0-2.4c0.2-0.6,0.3-1.3,0.3-2c0.4,0.5,0.9,0.7,1.5,0.7l0,0c0.5,0,1-0.2,1.3-0.7c-2.1-0.9-1.9-3.8-1.9-3.8
			C33.5,21,33.8,21.1,34.1,21.1 M33.5,24.1c-0.9-0.4-1.4-1.6-1.6-2c-0.1,2.2-1.2,3.8-2.5,5.3c-0.4,0.5-0.7,1-0.9,1.5
			c0.1-0.6,0.3-1.1,0.7-1.6c1.2-1.5,2.4-3.3,2.4-5.3c0.1-1.3-0.2-2.5-0.9-3.6c0.4,1.2,0.1,2.5-0.8,3.4c0,0,2.2-2.7-0.9-5.4
			c-1.2-1-2.6-1.7-3.3-2.1c2.5,0.8,3.7-0.1,3.7-0.1c-0.7,0.5-1.6,0.8-2.5,0.6c0.2,0.1,0.4,0.2,0.6,0.3c2.1,1.2,4,3.1,4.4,5.7v0
			C32.4,23.4,33.5,24.1,33.5,24.1"/>
		<path class="st0" d="M13.2,26.9c0.4,0,0.7-0.2,1-0.4c0.3-0.2,0.5-0.6,0.5-1c-0.9,0-1.8-0.3-2.4-1.1c-0.4-0.4-0.6-0.9-0.7-1.5
			c0.5,0.4,1.1,0.6,1.8,0.6c0.1,0,0.2,0,0.3,0c0.3,0,0.7-0.2,0.9-0.4c-1.2-0.8-2.1-2.2-1.3-4.2c0.6-1.7,2.1-2.9,3.6-3.8
			c0.5-0.3,0.8-0.7,0.8-0.9c0-0.7-1-0.7-1.4-1.2c-0.5-0.5-0.2-1.4,0.2-1.9c-0.1,0-0.2,0-0.4,0c-0.7,0-1.3,0.3-1.8,0.7
			c-0.5,0.4-0.7,1.1-0.5,1.7l-0.2,0c-0.1,0-0.3,0-0.4,0h-0.1c-1.2,0-1.7-1.2-1.7-1.2s-1.2,1.5,0.6,2.7c0.3,0.2,0.5,0.4,0.4,0.6
			l0,0.1l-0.1,0c-1.3,0.4-2,1.3-2.8,2.3c-0.8,1-1.9,1.6-3.2,1.6h0c0,0,0.4,1.3,1.6,1.3h0.1c0.3,0,0.6-0.1,0.8-0.2
			c0,0,0.2,2.9-1.9,3.8c0.3,0.4,0.8,0.7,1.3,0.7l0,0c0.6,0,1.1-0.2,1.5-0.7c0,0.7,0.1,1.4,0.3,2c0.3,0.8,0.3,1.6,0,2.4
			c0.2,0,0.4,0.1,0.5,0.1c0.1,0,0.2,0,0.3,0c0.5-0.1,1-0.5,1.1-1c0,0-0.1,2.8,3.1,2.8h0c-0.2-0.5-0.4-1-0.4-1.5
			C14.6,27.2,13.2,26.9,13.2,26.9 M12.6,27.4c-1.3-1.5-2.4-3.1-2.5-5.4c-0.1,0.4-0.7,1.6-1.6,2c0,0,1.1-0.7,1.6-3.2v0
			c0.3-2.6,2.2-4.5,4.4-5.7c0.2-0.1,0.4-0.2,0.6-0.3c-0.9,0.2-1.8,0-2.5-0.6c0,0,1.2,0.9,3.7,0.1c-0.7,0.5-2,1.1-3.3,2.1
			c-3.1,2.7-0.9,5.4-0.9,5.4c-0.9-0.9-1.2-2.2-0.8-3.4c-0.7,1.1-1,2.3-0.9,3.6c0.1,2.1,1.2,3.9,2.4,5.3c0.4,0.5,0.6,1,0.7,1.6
			C13.4,28.4,13.1,27.9,12.6,27.4"/>
		<path class="st0" d="M18.6,16.8c0.1,0.1,0.1,0.1,0.2,0.2l0,0l0.1,0.2l0,0c0.1,0.1,0.1,0.2,0.2,0.3c0.4,0.7,1.1,1.2,1.9,1.3
			c0.8-0.1,1.5-0.6,1.9-1.3c0.1-0.1,0.1-0.2,0.2-0.3l0,0c0-0.1,0.1-0.1,0.1-0.2l0,0c0.1-0.1,0.1-0.1,0.2-0.2l0,0
			c0.2-0.3,0.6-0.4,0.9-0.5l-0.2-0.1l0,0l-0.7-0.4l-0.7-0.4l-1.8,1l0,0l-1.8-1l-0.7,0.4l-0.7,0.4l0,0l-0.2,0.1
			C18.1,16.4,18.4,16.6,18.6,16.8L18.6,16.8 M20.3,16.7h1.5v0.5c-0.1-0.1-0.3-0.2-0.5-0.2v0.7c0,0.2,0,0.4,0.1,0.5h-0.7
			c0.1-0.2,0.1-0.3,0.1-0.5v-0.7c-0.2,0-0.4,0-0.5,0.2L20.3,16.7z"/>
		<path class="st0" d="M20.9,15.7v-3.1L18.9,12l0.5,3L20.9,15.7z M20.5,13.4v0.5l-0.1,0c-0.1,0-0.3-0.1-0.4-0.2
			c-0.2-0.1-0.4-0.3-0.4-0.6L20.5,13.4z"/>
		<path class="st0" d="M22.6,15l0.5-3l-1.9,0.7v3.1L22.6,15z M21.6,13.4l0.9-0.4c0,0.2-0.2,0.5-0.4,0.6c-0.1,0.1-0.3,0.2-0.4,0.2
			l-0.1,0L21.6,13.4z"/>
		<path class="st0" d="M18.1,22.8c0.2,0.1,0.4,0.1,0.5,0.1v-0.1c0,0,0-0.1,0-0.1c0-0.2,0-0.3,0-0.5c-0.1-0.1-0.2-0.2-0.3-0.3
			c0-0.1-0.2-0.2-0.3-0.2c-0.2,0-0.3,0.1-0.5,0.2C17.6,22.3,17.8,22.6,18.1,22.8"/>
		<path class="st0" d="M22.4,21.2c-0.4,0.4-1.1,1.1-1.1,1.1l0,0l-2.2,0c0,0.2,0,0.4-0.1,0.5v0.1l2.7,0.5c0.3-0.2,1-0.7,1.3-1
			c-0.2-0.3-0.2-0.6-0.2-0.9C22.6,21.4,22.5,21.3,22.4,21.2"/>
		<path class="st0" d="M22.7,18.5c-0.4,0.5-1.1,0.8-1.7,0.8l0,0c-0.1,0-0.2,0-0.2,0c-0.1,0-0.2,0-0.2,0c0,0.2,0,0.4,0,0.5
			c0.1,0.2,0.3,0.4,0.6,0.5l0.1,0v0.1c0,0.4,0.3,0.8,0.7,0.9c0.1-0.1,0.2-0.2,0.3-0.3c-0.1-0.3-0.1-0.6,0.1-0.9
			c-0.1,0.5,0.2,1,0.6,1.2l0.1,0.1l0,0.1c-0.2,0.5,0.1,1,0.6,1.2l0.1,0.1l-0.1,0.1c-0.2,0.4,0,1,0.4,1.2h1.6v-1.3
			c-0.5-0.1-0.8-0.4-0.9-0.9c-0.2,0-0.5-0.2-0.6-0.4c-0.2-0.3-0.2-0.6,0-0.9c0,0.3,0.1,0.5,0.3,0.7c0.1,0.1,0.3,0.2,0.5,0.3h0.1v0.1
			c0,0.4,0.3,0.7,0.6,0.7v-2.7c0-0.4,0.1-0.8,0.3-1.2H22.7z"/>
		<polygon class="st0" points="18.3,19.7 18.2,21.5 18.4,21.5 18.9,19.8 18.6,19.3 		"/>
		<path class="st0" d="M23.5,27.6L23.5,27.6c0.3,0.1,0.4,1.1,0.9,1.2c0,0,0.1,0,0.1,0c0.1,0,0.3-0.1,0.3-0.2c0,0-0.3-0.4-0.5-0.7
			c-0.3-0.4-0.5-0.8-0.9-0.8h0c-0.1,0-0.2,0-0.3,0.1c-0.2-0.1-0.3-0.2-0.5-0.2c-0.2,0-0.4,0.1-0.7,0.1l0,0l-1.1-0.1
			c-0.1,0-0.3-0.1-0.4-0.3v0c0,0,0-0.1,0-0.1c0-0.6-0.4-1.1-1-1.3c0,0,0-0.2,0-0.2l-0.2,0.3l-0.8-0.4l0.6,0.7l-0.5,0.6
			c0,0-0.1,0.1,0,0.2l0.2,0.2l0.3-0.2c0,0,0,0,0.1,0c0.1,0,0.2,0,0.3,0c0.1,0,0.2,0,0.2-0.1c0,0.3-0.3,0.9-0.1,1.3l0.1,0.3l-1-0.1
			l-0.4,0.8c-0.1,0.2-0.1,0.5,0,0.7l0.2,0.2c0.1-0.1,0.2-0.3,0.3-0.4l-0.1-0.1c-0.1-0.1-0.1-0.1,0-0.2l0.3-0.5l1.1,0.3l0.1-0.1
			c0.1-0.1,0.2-0.2,0.3-0.2c0.1,0,0.1,0,0.2,0c0.3,0.1,0.6,0.1,0.9,0.1c0.3,0,0.7-0.1,0.9-0.3c0.4,0.6,1.2,0.7,1.2,1l-0.2,1
			c0.1,0,0.3,0,0.4,0l0.2-1.1c0-0.1,0-0.3,0-0.3c-0.2-0.1-0.3-0.3-0.4-0.5c-0.1-0.3-0.1-0.4-0.2-0.8C23.4,27.6,23.4,27.6,23.5,27.6
			 M19.3,26.1C19.2,26.1,19.2,26,19.3,26.1C19.2,26,19.2,26,19.2,26c0-0.1,0-0.1,0.1-0.1c0,0,0,0,0,0c0.1,0,0.1,0,0.1,0.1
			C19.4,26,19.3,26.1,19.3,26.1"/>
		<path class="st0" d="M17.7,28.6c0,0,0.4-0.2,0.4-0.3l0-0.1c0-0.1,0-0.2,0-0.2l0.4-0.3l0.7,0.1c-0.1-0.1-0.1-0.2-0.1-0.4l-0.6-0.1
			l-0.6,0.4c-0.2,0.2-0.3,0.4-0.2,0.7L17.7,28.6z"/>
		<path class="st0" d="M22.5,30.3h0.4c0,0,0.3-1,0.4-1c-0.3-0.1-0.5-0.3-0.8-0.4c0.1,0.2,0.4,0.3,0.3,0.5L22.5,30.3z"/>
		<path class="st69" d="M25.8,24.3h-9.6v3.6c0,1.5,1.1,2.4,2.6,2.4c1.3,0,1.7,0.1,2.1,0.5c0.3-0.3,0.7-0.5,1.2-0.5v-0.1l0.3-0.9
			L22,28.8c-0.2,0.1-0.4,0.1-0.6,0.1c-0.3,0-0.6,0-0.9-0.1c0,0-0.1,0-0.1,0c0,0,0,0-0.1,0l-0.1,0.1L20.1,29l-0.2,0L19,28.8L18.8,29
			v0l0.1,0.1l0,0.2c-0.1,0.2-0.2,0.4-0.4,0.5l-0.2,0.2l-0.2-0.3L18,29.6c-0.2-0.2-0.2-0.5-0.1-0.8l0,0L17.6,29l-0.1-0.3l-0.1-0.2
			c-0.2-0.4,0-0.8,0.3-1.1l0.7-0.4l0.7,0.1c0-0.1,0-0.3,0.1-0.4h0L18.8,27l-0.4-0.3c-0.1-0.1-0.1-0.2,0-0.3c0,0,0,0,0,0l0.4-0.6
			l-1-1.2l1.5,0.6l0.1-0.1l0.2-0.2l0.2,0.2c0.1,0.1,0.1,0.1,0.1,0.2c0.4,0.2,1.1,0.6,1.2,1.4l-0.2,0.1l0,0c0,0,0.1,0.1,0.1,0.1
			L22,27l0.1,0c0.2-0.1,0.4-0.1,0.6-0.1c0.2,0,0.4,0,0.6,0.1c0.1,0,0.2,0,0.2,0h0.1c0.5,0,0.9,0.3,1.1,0.8l0.1,0.2
			c0.2,0.3,0.5,0.7,0.5,0.7l0.1,0.2l-0.1,0.2c-0.1,0.2-0.3,0.3-0.6,0.3c-0.1,0-0.1,0-0.2,0c-0.1,0-0.1-0.1-0.2-0.1
			c0,0.1,0,0.1,0,0.2l-0.2,1c1.1-0.2,1.9-1.2,1.8-2.3V24.3z"/>
		<path class="st69" d="M16.2,24h7.5c-0.3-0.3-0.4-0.8-0.3-1.2c-0.1,0-0.2-0.1-0.3-0.2c-0.3,0.2-1.2,0.9-1.4,1l0,0l-2.9-0.5h-0.1
			c-0.1,0-0.2,0-0.3,0c0,0.1-0.1,0.2-0.3,0.2h0c-0.2,0-0.3-0.2-0.2-0.3V23c-0.4-0.3-0.6-0.7-0.5-1.2l0,0l0,0c0,0,0.1,0,0.1-0.1
			l-0.2,0c-0.1,0-0.1-0.1-0.1-0.2c0-0.1,0.1-0.1,0.2-0.1c0,0,0,0,0,0l0.5,0.1l0-1.8l0.8-0.8l0.5,1l-0.5,1.7l0.4,0.1
			c0.1,0,0.1,0.1,0.1,0.2c0,0.1-0.1,0.1-0.1,0.1h0l-0.4-0.1v0c0,0.1,0.1,0.1,0.2,0.2l2.2,0l0.6-0.6c-0.4-0.2-0.7-0.5-0.8-1
			c-0.3-0.1-0.5-0.3-0.6-0.6c-0.1-0.3-0.1-0.5-0.1-0.8c-0.4-0.1-0.7-0.3-0.9-0.6H16c0.2,0.4,0.2,0.8,0.3,1.2V24z"/>
		<path class="st70" d="M19.3,25.9c-0.1,0-0.1,0-0.1,0.1c0,0,0,0,0,0c0,0.1,0,0.1,0.1,0.1c0,0,0,0,0,0C19.3,26.1,19.4,26,19.3,25.9
			C19.4,25.9,19.3,25.9,19.3,25.9"/>
		<path class="st70" d="M25.8,32.4l-0.6-0.2l0.2-0.6l0.2-0.6c-0.8,0.4-1.5,0.7-2.4,0.9c-0.4,0.1-0.7,0.2-0.7,0.2v0.4
			c-0.5,0.1-1,0.1-1.5,0.1h0c-0.5,0-1,0-1.5-0.1v-0.4c0,0-0.3-0.1-0.7-0.2c-0.8-0.2-1.6-0.5-2.4-0.9l0.2,0.6l0.2,0.6l-0.6,0.2
			l-0.6,0.2c0.8,0.4,1.7,0.8,2.6,1.1L18,34.3c1,0.4,2,0.5,3,0.5h0c1,0,2.1-0.2,3-0.5l-0.2-0.6c0.9-0.3,1.7-0.6,2.6-1.1L25.8,32.4z
			 M16.3,32.7l0.9-0.3l-0.3-0.9c0.6,0.3,1.2,0.5,1.8,0.7l-0.4,1.2C17.6,33.2,16.9,33,16.3,32.7 M21,34.5c-0.9,0-1.8-0.1-2.6-0.4
			l0.5-1.5c0.7,0.2,1.4,0.3,2.1,0.3h0c0.7,0,1.4-0.1,2.1-0.3l0.5,1.5C22.8,34.4,21.9,34.5,21,34.5 M23.7,33.4l-0.4-1.2
			c0.6-0.2,1.2-0.4,1.8-0.7l-0.3,0.9l0.9,0.3C25.1,33,24.4,33.2,23.7,33.4"/>
		<path class="st70" d="M21,9.7c0.9,0,1.8,0.2,2.5,0.8c0.1-0.6,0.3-1.2,0.7-1.7l-0.9,0.1l-0.5-1l-0.9,0.5L21,7.5l-0.9,0.9l-0.9-0.5
			l-0.5,1l-0.9-0.1c0.3,0.5,0.5,1.1,0.7,1.7C19.2,9.9,20.1,9.7,21,9.7 M18.7,9.2l0.3,0L19.1,9l0.3-0.7L20,8.7l0.2,0.1l0.2-0.2L21,8
			l0.6,0.6l0.2,0.2l0.2-0.1l0.6-0.3L23,9l0.1,0.2l0.3,0l0.2,0c-0.1,0.2-0.2,0.4-0.2,0.7c-1.4-0.7-3.1-0.7-4.6,0
			c-0.1-0.2-0.2-0.5-0.2-0.7L18.7,9.2z"/>
		<path class="st70" d="M34.2,21.4c1.5,0,1.9-1.5,2-1.5l0.2-0.5h-0.5l0,0c-1.1,0-2.2-0.6-2.9-1.5l-0.1-0.1c-0.7-0.9-1.4-1.8-2.7-2.2
			c0,0,0.1-0.1,0.2-0.1c0.6-0.3,1-0.9,1.2-1.6c0.1-0.6-0.1-1.2-0.5-1.7l-0.4-0.5l-0.3,0.6c0,0-0.4,1-1.3,1h-0.1h-0.2
			c0-0.6-0.2-1.2-0.6-1.7c-0.5-0.5-1.3-0.9-2-0.8c-0.1,0-0.3,0-0.4,0l-0.6,0.1l0.4,0.5c0.3,0.4,0.6,1.1,0.2,1.5
			c-0.2,0.1-0.3,0.2-0.5,0.3c-0.4,0.2-1,0.5-1,1.1c0,0.4,0.3,0.9,0.9,1.3c1.8,1.1,2.9,2.3,3.4,3.6c0.7,2-0.2,3.2-1.2,3.8l-0.4,0.3
			l0.4,0.3c0.3,0.3,0.7,0.5,1.2,0.5c0.1,0,0.2,0,0.4,0c0.4,0,0.7-0.1,1.1-0.2c-0.1,0.2-0.2,0.3-0.3,0.4c-0.5,0.6-1.3,1-2.2,0.9H27
			l0,0.4c0,0.5,0.2,1,0.6,1.3c0.1,0.1,0.2,0.2,0.3,0.2c-0.6,0.6-0.9,1.4-0.9,2.2c0,0.5-0.1,0.9-0.3,1.3l-0.4,0.6h0.7
			c1.2,0,2.1-0.3,2.7-1c0.3-0.3,0.6-0.7,0.7-1.2c0.2,0.2,0.5,0.3,0.8,0.4c0.1,0,0.3,0,0.4,0c0.2,0,0.4,0,0.6-0.1l0.5-0.1l-0.2-0.4
			c-0.2-0.7-0.2-1.4,0-2.1c0.1-0.4,0.3-0.9,0.3-1.4c0.4,0.2,0.8,0.3,1.2,0.3c0.7,0,1.3-0.3,1.6-0.9l0.2-0.4l-0.4-0.2
			c-1.3-0.6-1.6-2-1.7-2.8C33.8,21.4,33.9,21.4,34.2,21.4L34.2,21.4z M35.2,24.6c-0.3,0.4-0.8,0.7-1.3,0.7l0,0
			c-0.6,0-1.1-0.2-1.5-0.7c0,0.7-0.1,1.4-0.3,2c-0.3,0.8-0.3,1.6,0,2.4c-0.2,0-0.4,0.1-0.5,0.1c-0.1,0-0.2,0-0.3,0
			c-0.5-0.1-1-0.5-1.1-1c0,0,0.1,2.8-3.1,2.8h0c0.2-0.5,0.4-1,0.4-1.5c0.2-2.1,1.5-2.3,1.5-2.3c-0.4,0-0.7-0.2-1.1-0.4
			c-0.3-0.2-0.5-0.6-0.5-1c0.9,0,1.8-0.3,2.5-1.1c0.4-0.4,0.6-0.9,0.7-1.5c-0.5,0.4-1.1,0.6-1.8,0.6c-0.1,0-0.2,0-0.3,0
			c-0.3,0-0.7-0.2-0.9-0.4c1.2-0.8,2.1-2.2,1.3-4.2c-0.6-1.7-2.1-2.9-3.6-3.8c-0.5-0.3-0.8-0.7-0.8-0.9c0-0.7,1-0.7,1.4-1.2
			c0.5-0.5,0.2-1.4-0.2-1.9c0.1,0,0.2,0,0.4,0c0.7,0,1.3,0.3,1.8,0.7c0.5,0.4,0.6,1.1,0.5,1.7l0.2,0c0.1,0,0.3,0,0.4,0h0.1
			c1.2,0,1.7-1.2,1.7-1.2s1.2,1.5-0.6,2.7c-0.3,0.2-0.5,0.4-0.4,0.6l0,0.1l0.1,0c1.3,0.4,2,1.3,2.8,2.3c0.8,1,1.9,1.6,3.2,1.6h0
			c0,0-0.4,1.3-1.6,1.3h-0.1c-0.3,0-0.6-0.1-0.8-0.2C33.3,20.8,33.1,23.7,35.2,24.6"/>
		<path class="st70" d="M31.6,15.7c0.4,0.3,0.8,0.6,1.1,1c0.2,0.4,0.6,0.6,0.9,0.8c0.1,0,0.3,0.1,0.5,0.1c0.6,0,1.2-0.3,1.4-0.9
			l0.2-0.5l-0.6,0c-0.6-0.1-1.2-0.4-1.6-0.9c-0.3-0.3-0.7-0.5-1.2-0.5c-0.3,0-0.7,0.1-1,0.3l-0.5,0.4L31.6,15.7z M32.5,15.1
			c0.3,0,0.7,0.1,0.9,0.4c0.5,0.5,1.1,0.9,1.8,1c-0.2,0.4-0.6,0.7-1.1,0.7c-0.1,0-0.2,0-0.3-0.1c-0.6-0.2-0.9-1.2-2-1.8
			C32,15.2,32.3,15.1,32.5,15.1"/>
		<path class="st70" d="M31.9,20.8L31.9,20.8c-0.3-2.6-2.2-4.5-4.4-5.7c-0.2-0.1-0.4-0.2-0.6-0.3c0.9,0.2,1.8,0,2.5-0.6
			c0,0-1.2,0.9-3.7,0.1c0.7,0.5,2.1,1.1,3.3,2.1c3.1,2.7,0.9,5.4,0.9,5.4c0.9-0.9,1.2-2.2,0.8-3.4c0.7,1.1,1,2.3,0.9,3.6
			c-0.1,2.1-1.2,3.9-2.4,5.3c-0.4,0.5-0.6,1-0.7,1.6c0.2-0.6,0.5-1.1,0.9-1.5c1.3-1.5,2.4-3.1,2.5-5.4c0.1,0.4,0.7,1.6,1.6,2
			C33.5,24.1,32.4,23.4,31.9,20.8"/>
		<path class="st70" d="M15.4,30.5c-0.2-0.4-0.3-0.9-0.3-1.3c0-0.8-0.3-1.6-0.9-2.2c0.1-0.1,0.2-0.1,0.3-0.2
			c0.4-0.3,0.6-0.8,0.6-1.3l0-0.4h-0.4c-0.8,0-1.6-0.3-2.2-0.9c-0.1-0.1-0.2-0.3-0.3-0.5c0.4,0.1,0.7,0.2,1.1,0.2c0.1,0,0.2,0,0.4,0
			c0.4,0,0.8-0.2,1.2-0.5l0.4-0.3l-0.4-0.3c-0.9-0.6-1.9-1.8-1.2-3.8c0.5-1.3,1.6-2.5,3.4-3.6c0.6-0.4,0.9-0.8,0.9-1.3
			c0-0.7-0.6-0.9-1-1.1c-0.2-0.1-0.4-0.2-0.5-0.3c-0.3-0.4-0.1-1.1,0.2-1.5l0.4-0.5l-0.6-0.1c-0.1,0-0.3,0-0.4,0
			c-0.8,0-1.5,0.3-2,0.8c-0.4,0.4-0.7,1.1-0.6,1.7h-0.2h-0.1c-0.9,0-1.3-0.9-1.3-1l-0.3-0.6l-0.4,0.5c-0.4,0.5-0.5,1.1-0.5,1.7
			c0.1,0.7,0.6,1.3,1.2,1.6c0.1,0,0.1,0.1,0.2,0.1c-1.3,0.4-2,1.3-2.7,2.2l-0.1,0.1c-0.7,0.9-1.8,1.4-2.9,1.5l-0.6,0l0.2,0.5
			c0,0.1,0.5,1.5,2,1.5h0.1c0.1,0,0.3,0,0.4,0c-0.1,0.8-0.4,2.3-1.7,2.8l-0.4,0.2l0.2,0.4c0.4,0.6,1,0.9,1.6,0.9
			c0.4,0,0.8-0.1,1.2-0.3c0.1,0.5,0.2,0.9,0.3,1.4c0.2,0.7,0.2,1.4,0,2.1l-0.2,0.4l0.5,0.1c0.2,0,0.4,0.1,0.6,0.1c0.1,0,0.3,0,0.4,0
			c0.3-0.1,0.6-0.2,0.8-0.4c0.1,0.4,0.4,0.9,0.7,1.2c0.6,0.6,1.5,1,2.7,1h0.7L15.4,30.5z M15.1,30.8c-3.2,0-3.1-2.8-3.1-2.8
			c-0.2,0.5-0.6,0.9-1.1,1c-0.1,0-0.2,0-0.3,0c-0.2,0-0.4,0-0.5-0.1c0.3-0.8,0.3-1.6,0-2.4c-0.2-0.6-0.3-1.3-0.3-2
			c-0.4,0.5-0.9,0.7-1.5,0.7l0,0c-0.5,0-1-0.2-1.3-0.7c2.1-0.9,1.9-3.8,1.9-3.8c-0.2,0.2-0.5,0.2-0.8,0.2H7.8
			c-1.2,0-1.6-1.3-1.6-1.3h0c1.3,0,2.4-0.6,3.2-1.6c0.8-1,1.5-2,2.8-2.3l0.1,0l0-0.1c0-0.2-0.1-0.4-0.4-0.6
			c-1.8-1.2-0.6-2.7-0.6-2.7s0.5,1.2,1.7,1.2h0.1c0.1,0,0.3,0,0.4,0l0.2,0c-0.2-0.6,0-1.3,0.5-1.7c0.5-0.5,1.1-0.7,1.8-0.7
			c0.1,0,0.2,0,0.4,0c-0.4,0.5-0.7,1.4-0.2,1.9c0.4,0.5,1.4,0.5,1.4,1.2c0,0.3-0.3,0.6-0.8,0.9c-1.5,0.9-2.9,2.2-3.6,3.8
			c-0.8,2.1,0.1,3.4,1.3,4.2c-0.3,0.2-0.6,0.4-0.9,0.4c-0.1,0-0.2,0-0.3,0c-0.6,0-1.3-0.2-1.8-0.6c0.1,0.5,0.3,1.1,0.7,1.5
			c0.6,0.7,1.5,1.1,2.4,1.1c0,0.4-0.2,0.7-0.5,1c-0.3,0.2-0.7,0.4-1.1,0.4c0,0,1.4,0.3,1.5,2.3C14.7,29.8,14.8,30.3,15.1,30.8
			L15.1,30.8z"/>
		<path class="st70" d="M7.9,17.6c0.2,0,0.3,0,0.5-0.1c0.4-0.2,0.7-0.4,0.9-0.8c0.3-0.4,0.7-0.8,1.1-1l0.6-0.3L10.4,15
			c-0.3-0.2-0.6-0.3-1-0.3c-0.4,0-0.9,0.2-1.2,0.5c-0.4,0.5-0.9,0.8-1.6,0.9l-0.6,0.1l0.2,0.5C6.7,17.2,7.3,17.6,7.9,17.6 M8.6,15.5
			c0.2-0.3,0.5-0.4,0.9-0.4c0.3,0,0.5,0.1,0.8,0.2c-1.1,0.6-1.4,1.6-2,1.8c-0.1,0-0.2,0.1-0.3,0.1c-0.5,0-0.9-0.3-1.1-0.7
			C7.5,16.4,8.2,16.1,8.6,15.5"/>
		<path class="st70" d="M10.4,22.1c-0.1-1.3,0.2-2.5,0.9-3.6c-0.4,1.2-0.1,2.5,0.8,3.4c0,0-2.2-2.7,0.9-5.4c1.2-1,2.6-1.7,3.3-2.1
			c-2.5,0.8-3.7-0.1-3.7-0.1c0.7,0.5,1.6,0.8,2.5,0.6c-0.2,0.1-0.4,0.2-0.6,0.3c-2.1,1.2-4,3.1-4.4,5.7v0c-0.5,2.6-1.6,3.2-1.6,3.2
			c0.9-0.4,1.4-1.6,1.6-2c0.1,2.3,1.3,3.8,2.5,5.4c0.4,0.5,0.7,1,0.9,1.5c-0.1-0.6-0.4-1.1-0.7-1.6C11.7,26,10.5,24.1,10.4,22.1"/>
		<path class="st70" d="M20.3,16.8v0.5c0.1-0.1,0.3-0.2,0.5-0.2v0.7c0,0.2-0.1,0.4-0.1,0.5h0.7c-0.1-0.2-0.1-0.3-0.1-0.5v-0.7
			c0.2,0,0.4,0,0.5,0.2v-0.5H20.3z"/>
		<path class="st70" d="M20,13.7c0.1,0.1,0.3,0.2,0.4,0.2l0.1,0v-0.5l-0.9-0.4C19.6,13.3,19.8,13.5,20,13.7"/>
		<path class="st70" d="M22.1,13.7c0.2-0.1,0.4-0.3,0.4-0.6l-0.9,0.4v0.5l0.1,0C21.8,13.8,22,13.8,22.1,13.7"/>
		<path class="st70" d="M23.7,11.7c0-0.7-1.3-1.4-2.6-1.4l0,0c-1.4,0-2.6,0.7-2.6,1.4l0,0.2L19,15l-0.6,0.3L17,16.2l0,0
			c0,0-0.3,0.2-0.5,0.3c-0.5,0.4-0.7,0.9-0.3,1.2c0.1-0.5,0.6-0.9,1.1-0.9c0.5,0,0.9,0.2,1.1,0.6c0.1,0.1,0.2,0.2,0.2,0.3
			c0.1,0.1,0.2,0.3,0.2,0.4h-3.7c0.3,0.5,0.5,1.1,0.5,1.8v8.2c0,2,1.5,2.9,3.2,2.9c1.3,0,1.4-0.1,2.1,0.6c0.7-0.7,0.9-0.6,2.1-0.6
			c1.6,0,3.2-0.9,3.2-2.9v-8.2c0-0.6,0.2-1.2,0.5-1.8h-3.7c0.1-0.1,0.2-0.2,0.2-0.4c0.1-0.1,0.1-0.2,0.2-0.3
			c0.3-0.4,0.7-0.6,1.1-0.6c0.5,0,1,0.4,1.1,0.9c0.3-0.2,0.2-0.8-0.3-1.2c-0.1-0.1-0.5-0.3-0.5-0.3l0,0l-1.4-0.8L23.1,15l0.6-3.2
			L23.7,11.7z M18.9,12l1.9,0.7v3.1L19.4,15L18.9,12z M19.3,18.5c0.3,0.3,0.6,0.5,0.9,0.6c-0.1,0.3-0.1,0.5,0.1,0.8
			c0.1,0.3,0.4,0.5,0.6,0.6c0.1,0.5,0.4,0.8,0.8,1l-0.6,0.6l-2.2,0c-0.1,0-0.1-0.1-0.2-0.2v0l0.4,0.1h0c0.1,0,0.1,0,0.1-0.1
			c0-0.1,0-0.2-0.1-0.2l-0.4-0.1l0.5-1.7l-0.5-1L18,19.6l0,1.8l-0.5-0.1c-0.1,0-0.2,0-0.2,0.1c0,0,0,0,0,0c0,0.1,0,0.2,0.1,0.2
			l0.2,0c-0.1,0-0.1,0.1-0.1,0.1l0,0v0.1c-0.1,0.5,0.1,0.9,0.5,1.2v0.1c0,0.2,0.1,0.3,0.2,0.3h0c0.1,0,0.2-0.1,0.3-0.2
			c0.1,0,0.2,0,0.3,0h0.1l2.9,0.5l0,0c0.2-0.2,1.1-0.8,1.4-1c0.1,0.1,0.2,0.1,0.3,0.2c-0.1,0.4,0,0.9,0.3,1.2h-7.5v-4.3
			c0-0.4-0.1-0.8-0.3-1.2H19.3z M22.9,22.4c-0.3,0.2-1.1,0.8-1.3,1l-2.7-0.5v-0.1c0-0.2,0.1-0.4,0.1-0.5l2.2,0l0,0
			c0,0,0.7-0.7,1.1-1.1c0.1,0.1,0.2,0.2,0.3,0.3C22.6,21.8,22.7,22.2,22.9,22.4 M18.5,22c0.1,0.1,0.1,0.2,0.3,0.3c0,0.2,0,0.3,0,0.5
			c0,0,0,0.1,0,0.1v0.1c-0.2,0-0.4,0-0.5-0.1c-0.3-0.2-0.5-0.5-0.4-0.9c0.1-0.1,0.3-0.1,0.5-0.2C18.3,21.8,18.4,21.9,18.5,22
			 M18.2,21.5l0-1.7l0.4-0.4l0.2,0.5l-0.5,1.6L18.2,21.5z M22.9,30.3h-0.4l0.3-1c0-0.1-0.2-0.3-0.3-0.5c0.2,0.1,0.5,0.3,0.8,0.4
			C23.3,29.3,22.9,30.3,22.9,30.3 M23.9,29.2l-0.2,1.1c-0.1,0-0.3,0-0.4,0l0.2-1c0.1-0.3-0.8-0.4-1.2-1c-0.3,0.2-0.6,0.3-0.9,0.3
			c-0.3,0-0.6,0-0.9-0.1c-0.1,0-0.1,0-0.2,0c-0.1,0-0.2,0.1-0.3,0.2L20,28.7l-1.1-0.3l-0.3,0.5c0,0.1,0,0.2,0,0.2l0.1,0.1
			c-0.1,0.1-0.2,0.3-0.3,0.4l-0.2-0.2c-0.1-0.2-0.1-0.5,0-0.7l0.4-0.8l1,0.1l-0.1-0.3c-0.2-0.4,0.1-1,0.1-1.3c0,0.1-0.1,0.1-0.2,0.1
			c-0.1,0-0.2,0-0.3,0c0,0,0,0-0.1,0l-0.3,0.2l-0.2-0.2c0-0.1,0-0.1,0-0.2l0.5-0.5l-0.6-0.7l0.8,0.4l0.2-0.3c0.1,0.1,0,0.2,0,0.2
			c0.6,0.1,1,0.7,1,1.3c0,0,0,0.1,0,0.1v0c0.1,0.1,0.2,0.2,0.4,0.3l1.1,0.1l0,0c0.2-0.1,0.4-0.1,0.7-0.1c0.2,0,0.4,0.1,0.5,0.2
			c0.1-0.1,0.2-0.1,0.3-0.1h0c0.5,0,0.7,0.4,0.9,0.8c0.2,0.3,0.5,0.7,0.5,0.7c-0.1,0.1-0.2,0.2-0.3,0.2c0,0-0.1,0-0.1,0
			c-0.5-0.1-0.6-1.2-0.9-1.2h0c-0.1,0-0.1,0-0.1,0.1c0.1,0.4,0.1,0.5,0.2,0.8c0.1,0.2,0.2,0.3,0.4,0.5C24,29,23.9,29.1,23.9,29.2
			 M18.1,28.2l0,0.1c0,0.1-0.4,0.3-0.4,0.3l-0.1-0.2c-0.1-0.2,0-0.5,0.2-0.7l0.6-0.4l0.6,0.1c0,0.1,0,0.3,0.1,0.4l-0.7-0.1L18.2,28
			C18.1,28,18.1,28.1,18.1,28.2 M24,30.2l0.2-1c0-0.1,0-0.1,0-0.2c0.1,0,0.1,0,0.2,0.1c0.1,0,0.1,0,0.2,0c0.2,0,0.4-0.1,0.6-0.3
			l0.1-0.2l-0.1-0.2c0,0-0.3-0.4-0.5-0.7l-0.1-0.2c-0.2-0.4-0.6-0.7-1.1-0.8h-0.1c-0.1,0-0.2,0-0.2,0c-0.2-0.1-0.4-0.1-0.6-0.1
			c-0.2,0-0.4,0-0.6,0.1l-0.1,0L21,26.8c0,0-0.1-0.1-0.1-0.1l0,0l0.2-0.1c-0.1-0.8-0.8-1.2-1.2-1.4c0-0.1-0.1-0.2-0.1-0.2l-0.2-0.2
			l-0.2,0.2l-0.1,0.1l-1.5-0.6l1,1.2l-0.4,0.6c-0.1,0.1-0.1,0.2,0,0.3c0,0,0,0,0,0l0.4,0.3l0.4-0.2h0c0,0.1,0,0.3-0.1,0.4L18.4,27
			l-0.7,0.4c-0.4,0.3-0.5,0.7-0.3,1.1l0.1,0.2l0.1,0.3l0.3-0.1l0,0c-0.1,0.3-0.1,0.5,0.1,0.8l0.2,0.2l0.2,0.3l0.2-0.2
			c0.2-0.1,0.3-0.3,0.4-0.5l0-0.2L18.9,29v0l0.1-0.2l0.9,0.2l0.2,0l0.1-0.2l0.1-0.1c0,0,0,0,0.1,0h0.1c0.3,0.1,0.6,0.1,0.9,0.1
			c0.2,0,0.4,0,0.6-0.1l0.5,0.6l-0.3,0.9v0.1c-0.5,0-0.9,0.2-1.2,0.5c-0.5-0.5-0.8-0.5-2.1-0.5c-1.6,0-2.6-0.9-2.6-2.4v-3.6h9.6v3.6
			C25.8,29,25.1,30,24,30.2 M26.1,18.5c-0.2,0.4-0.3,0.8-0.3,1.2v2.7c-0.3-0.1-0.6-0.4-0.6-0.7v-0.1H25c-0.2,0-0.4-0.1-0.5-0.3
			c-0.2-0.2-0.3-0.5-0.3-0.7c-0.2,0.3-0.2,0.6,0,0.9c0.2,0.2,0.4,0.3,0.6,0.4c0.1,0.5,0.4,0.8,0.9,0.9V24h-1.6
			c-0.4-0.2-0.6-0.7-0.4-1.2l0.1-0.1l-0.1-0.1c-0.5-0.2-0.7-0.7-0.6-1.2l0-0.1L23,21.3c-0.4-0.2-0.6-0.7-0.6-1.2
			c-0.2,0.2-0.3,0.6-0.1,0.9c-0.1,0.1-0.2,0.2-0.3,0.3c-0.4-0.1-0.7-0.4-0.7-0.9v-0.1l-0.1,0c-0.2-0.1-0.4-0.3-0.6-0.5
			c-0.1-0.2-0.1-0.4,0-0.6c0.1,0,0.2,0,0.2,0c0.1,0,0.2,0,0.2,0l0,0c0.6,0,1.3-0.3,1.7-0.8L26.1,18.5z M23.5,15.8l0.7,0.4l0,0
			l0.2,0.1c-0.3,0.1-0.6,0.3-0.9,0.5l0,0c-0.1,0.1-0.1,0.1-0.2,0.2l0,0c-0.1,0.1-0.1,0.1-0.1,0.2l0,0c-0.1,0.1-0.1,0.2-0.2,0.3
			c-0.4,0.7-1.1,1.2-1.9,1.3c-0.8-0.1-1.5-0.6-1.9-1.3c-0.1-0.1-0.1-0.2-0.2-0.3l0,0l-0.1-0.2l0,0c-0.1-0.1-0.1-0.1-0.2-0.2l0,0
			c-0.2-0.3-0.6-0.4-0.9-0.5l0.2-0.1l0,0l0.7-0.4l0.7-0.4l1.8,1l0,0l1.8-1L23.5,15.8z M22.6,15l-1.4,0.8v-3.1l1.9-0.7L22.6,15z
			 M21,12.4l-2.1-0.8c0.2-0.4,1-0.8,2.1-0.8c1.1,0,1.9,0.4,2.1,0.8L21,12.4z"/>
	</g>
</g>
</svg>
