<?xml version="1.0" encoding="utf-8"?>
<!-- Generator: Adobe Illustrator 25.0.0, SVG Export Plug-In . SVG Version: 6.00 Build 0)  -->
<svg version="1.1" xmlns="http://www.w3.org/2000/svg" xmlns:xlink="http://www.w3.org/1999/xlink" x="0px" y="0px"
	 viewBox="0 0 42 42" style="enable-background:new 0 0 42 42;" xml:space="preserve">
<style type="text/css">
	.st0{opacity:0.3;fill:#FFFFFF;enable-background:new    ;}
	.st1{opacity:0.3;fill:#EBF6F0;}
	.st2{opacity:0.3;fill:#F7E6E9;}
	.st3{opacity:0.3;fill:#4EA3E4;}
	.st4{opacity:0.3;fill:#D89626;}
	.st5{opacity:0.3;fill:#007AE7;}
	.st6{opacity:0.3;fill:#1F79B1;}
	.st7{opacity:0.3;fill:#00ABE8;}
	.st8{opacity:0.3;fill:#021420;}
	.st9{opacity:0.3;fill:#2E9AD0;}
	.st10{opacity:0.3;fill:#9E1F65;}
	.st11{opacity:0.3;fill:#18B9BE;}
	.st12{opacity:0.3;fill:#5F2652;}
	.st13{opacity:0.3;fill:#001A3E;}
	.st14{opacity:0.3;fill:#009A61;}
	.st15{opacity:0.3;fill:#F01010;}
	.st16{opacity:0.3;fill:#009FDF;}
	.st17{opacity:0.3;}
	.st18{opacity:0.3;fill:#F0722A;}
	.st19{opacity:0.3;fill:#0FAFAD;}
	.st20{opacity:0.3;fill:#76B729;}
	.st21{opacity:0.3;fill:#204E76;}
	.st22{opacity:0.3;fill:#5F5742;}
	.st23{opacity:0.3;fill:#ECB244;}
	.st24{opacity:0.3;fill:#015FAE;}
	.st25{opacity:0.3;fill:#F7A600;}
	.st26{opacity:0.3;fill:#2775CA;}
	.st27{opacity:0.3;fill:#5DC8BB;}
	.st28{opacity:0.3;fill:#C53027;}
	.st29{opacity:0.3;fill:#FCE527;}
	.st30{opacity:0.3;fill:#2C7DF7;}
	.st31{opacity:0.3;fill:#444343;enable-background:new    ;}
	.st32{opacity:0.3;fill:#509B47;}
	.st33{fill:url(#SVGID_1_);}
	.st34{opacity:0.3;fill:#FF9E16;}
	.st35{fill:#FFFFFF;}
	.st36{opacity:0.3;fill:#3BB054;}
	.st37{opacity:0.3;fill:#179BD7;}
	.st38{opacity:0.3;fill:#00C452;}
	.st39{opacity:0.3;fill:#F1A114;}
	.st40{opacity:0.3;fill:#FF6600;}
	.st41{opacity:0.3;fill:#FAB31E;}
	.st42{opacity:0.3;fill:#345D9D;}
	.st43{opacity:0.3;fill:#969B9E;}
	.st44{opacity:0.3;fill:#01C853;}
	.st45{opacity:0.3;fill:#FFB600;}
	.st46{opacity:0.3;fill:#008DE4;}
	.st47{opacity:0.3;fill:#F19620;}
	.st48{opacity:0.3;fill:#F90000;}
	.st49{fill:#F10000;}
	.st50{fill:#F19620;}
	.st51{fill:none;stroke:#F10000;stroke-width:0.25;stroke-miterlimit:10;}
	.st52{fill:#008DE4;}
	.st53{fill:#FFB600;}
	.st54{fill:#01C853;}
	.st55{fill:#009F42;}
	.st56{fill:#007832;}
	.st57{fill:#454749;}
	.st58{fill:#989A9C;}
	.st59{fill:#969B9E;}
	.st60{fill:#0B0809;}
	.st61{fill:#454246;}
	.st62{fill:#434343;}
	.st63{fill:#345D9D;}
	.st64{fill-rule:evenodd;clip-rule:evenodd;fill:#FFFFFF;}
	.st65{fill-rule:evenodd;clip-rule:evenodd;fill:#FAB31E;}
	.st66{fill-rule:evenodd;clip-rule:evenodd;fill:#E40520;}
	.st67{fill-rule:evenodd;clip-rule:evenodd;fill:#06326E;}
	.st68{fill-rule:evenodd;clip-rule:evenodd;fill:#4C4C4C;}
	.st69{fill:#FF6600;}
	.st70{fill:#F4F5F5;}
	.st71{fill:#F1A114;}
	.st72{fill:#62ADE4;}
	.st73{fill:#14C0AF;}
	.st74{fill:#E8EF00;}
	.st75{fill:#009066;}
	.st76{fill:#0096DD;}
	.st77{fill:#00C452;}
	.st78{fill:#A7DB38;}
	.st79{fill:#006036;}
	.st80{fill:#253B80;}
	.st81{fill:#179BD7;}
	.st82{fill:#222D65;}
	.st83{fill:#3BB054;}
	.st84{fill:#0043FA;}
	.st85{fill:#FF9E16;}
	.st86{fill:url(#SVGID_2_);}
	.st87{fill:url(#SVGID_3_);}
	.st88{fill:#2C7DF7;}
	.st89{fill:#FCE527;}
	.st90{fill:#222220;}
	.st91{fill:#C53027;}
	.st92{fill:#5DC8BB;}
	.st93{fill:#5F6161;}
	.st94{fill:#2675CA;}
	.st95{fill:#005098;}
	.st96{fill:#F7A600;}
	.st97{fill:#015FAC;}
	.st98{fill:#ECB244;}
	.st99{fill:#76B729;}
	.st100{fill:#FEFCFD;}
	.st101{fill:#E70027;}
	.st102{fill:#FFFEFF;}
	.st103{fill:url(#SVGID_4_);}
	.st104{fill:#509B47;}
	.st105{fill:url(#SVGID_5_);}
	
		.st106{fill-rule:evenodd;clip-rule:evenodd;fill:#5F5742;stroke:#E2DFD7;stroke-width:0.3529;stroke-linejoin:round;stroke-miterlimit:2.6131;}
	
		.st107{fill-rule:evenodd;clip-rule:evenodd;fill:#FFFFFF;stroke:#5F5742;stroke-width:9.513900e-02;stroke-linejoin:round;stroke-miterlimit:2.6131;}
	.st108{fill-rule:evenodd;clip-rule:evenodd;fill:#5F5742;}
	.st109{fill-rule:evenodd;clip-rule:evenodd;fill:#204E76;}
	.st110{fill:#F90000;}
	.st111{fill:#009FDF;}
	.st112{fill:#0A2973;}
	.st113{fill:#F01010;}
	.st114{fill:#00384F;}
	.st115{fill:#009A61;}
	.st116{fill:#001A3E;}
	.st117{fill:#18B9BE;}
	.st118{fill:#9E1F65;}
	.st119{fill:#632D8F;}
	.st120{fill:#FF5000;}
	.st121{fill:#303147;}
	.st122{fill:#1D1E35;}
	.st123{fill:#B7BBCC;}
	.st124{fill:#6B6D88;}
	.st125{fill:#B7BBCA;}
	.st126{fill:#00ABE8;}
	.st127{fill:#1F79B1;}
	.st128{fill:#007AE7;}
	.st129{fill:#062662;}
	.st130{fill:#09255B;}
	.st131{fill:#D89626;}
	.st132{fill:#4EA3E4;}
	.st133{fill:#FAF9FB;}
	.st134{fill:url(#SVGID_6_);}
	.st135{fill:url(#SVGID_7_);}
	.st136{fill:#F7E6E9;}
	.st137{fill:#E9334C;}
	.st138{fill:#F07885;}
	.st139{fill:#EBF6F0;}
	.st140{fill:url(#SVGID_8_);}
	.st141{fill:none;stroke:#81E1A5;stroke-linecap:round;stroke-linejoin:round;stroke-miterlimit:10;}
	.st142{fill:url(#SVGID_9_);}
</style>
<g id="фон">
</g>
<g id="примеры">
</g>
<g id="лого">
	<g>
		<path class="st64" d="M32.9,21c0,6.8-5.3,12.3-11.9,12.3c-6.6,0-11.9-5.5-11.9-12.3c0-6.8,5.3-12.3,11.9-12.3
			C27.6,8.7,32.9,14.2,32.9,21z"/>
		<path class="st109" d="M9.3,21c0-6.7,5.3-12.1,11.7-12.1c6.5,0,11.7,5.4,11.7,12.1c0,6.7-5.3,12.1-11.7,12.1
			C14.5,33.1,9.3,27.7,9.3,21z M8.9,21c0,6.9,5.4,12.5,12.1,12.5c6.7,0,12.1-5.6,12.1-12.5c0-6.9-5.4-12.5-12.1-12.5
			C14.3,8.5,8.9,14.1,8.9,21z"/>
		<path class="st109" d="M28.7,19.7c-0.1,0.1-0.2,0.2-0.3,0.2c-0.7,0.5-1.7,1-3.2,1.4c-3,0.8-5.3,1-7.8,1.6c-0.5,0.1-1,0.3-1.5,0.5
			c0.5,0.2,1,0.5,1.5,0.7c1-0.3,1.5-0.4,3-0.7c0.6-0.1,2.3-0.4,3.6-0.7C26.3,22.2,29.6,21.1,28.7,19.7L28.7,19.7z M27.3,16.8
			c-0.5-0.2-1.1-0.4-1.7-0.6c-0.3,0.2-0.6,0.4-1.1,0.6c0.8,0.1,1.4,0.4,2.1,0.6l0,0C26.6,17.4,27.2,16.9,27.3,16.8L27.3,16.8z
			 M16.2,19.9c3-0.9,6.1-1.2,9.2-2c-1.2-0.3-1.9-0.5-3.2-0.3c-1.9,0.2-4,0.7-5.7,1.2c-0.7,0.2-4.4,1.3-3.3,2.8l0,0
			C13.1,21.6,13.8,20.6,16.2,19.9L16.2,19.9z M14.1,25.1c0,0.3,0.2,0.5,0.5,0.8c0-0.2,0.1-0.3,0.2-0.4l0,0
			C14.6,25.4,14.4,25.2,14.1,25.1L14.1,25.1z M15.5,24.9c0.2-0.1,0.5-0.3,0.8-0.4c-0.4-0.2-0.9-0.4-1.3-0.6
			c-0.2,0.1-0.4,0.3-0.5,0.4l0,0C14.8,24.6,15.2,24.7,15.5,24.9L15.5,24.9z M26.9,18.4c-0.6,0.3-1.5,0.6-2.7,0.9
			c-1,0.3-3.5,0.6-6.1,1.2c-0.8,0.2-3.1,0.7-4.2,1.7c0.3,0.3,0.5,0.3,0.8,0.5c0.5-0.3,1.1-0.6,2-0.8c1.6-0.4,2.8-0.6,4.3-0.9
			c1.4-0.2,4.2-0.8,5.7-1.4c0.5-0.2,0.9-0.4,1.3-0.7C27.9,18.9,26.9,18.4,26.9,18.4L26.9,18.4z M27.8,17.9c0.3,0.2,0.6,0.3,0.8,0.4
			c0.2-0.4,0.1-0.6-0.3-0.9l0,0C28.1,17.6,27.9,17.7,27.8,17.9L27.8,17.9z M14,23.4c-0.3-0.2-0.4-0.3-0.7-0.4
			c-0.1,0.3,0.1,0.6,0.3,0.7l0,0C13.8,23.6,13.9,23.5,14,23.4L14,23.4z M26.6,15c-0.1,0.2-0.3,0.4-0.4,0.6c0.4,0.1,0.9,0.3,1.3,0.5
			C27.4,15.6,27,15.2,26.6,15L26.6,15z M12.6,17.6c3.1-2.1,6.5-3.3,12.3-2.3c0.3-0.2,0.5-0.4,0.6-0.8c-1.5-0.5-3-0.7-5.1-0.7
			c-1.8,0-5.1,0.8-6.9,1.8l0.5-0.7c1.2-0.7,4.4-1.7,6.8-1.8c1.7,0,2.6,0.1,4.6,0.6c-0.2-0.4-0.6-0.5-1.2-0.8c-1.9-0.9-5.6-1-8.6,0.4
			c0.4-0.3,0.7-0.5,1.2-0.7c1-0.5,2.6-0.9,4.6-0.9c1.6,0,3.5,0.6,4.7,1.8c0.2,0.2,0.3,0.5,0.4,0.7c0.9,0.5,1.5,0.9,1.8,1.5
			c0.1,0.3,0.2,0.6,0.1,0.9c0.4,0.2,0.6,0.4,0.8,0.7c0.1,0.2,0.2,0.5,0.3,0.7c0,0.3,0.1,0.6-0.2,1c0.3,0.2,0.6,0.6,0.6,0.8
			c0.1,0.7-0.3,1.4-0.9,2c-0.7,0.6-2.2,1.3-3.4,1.7c-2.4,0.6-4.6,0.9-6.3,1.2c0.8,0.2,1.8,0.4,3.5,0.4c3.6,0,6.8-1.8,6.8-1.8
			s-0.1,0.2-0.1,0.4c-2.3,1.4-6,2.1-7.5,2c-1.6-0.1-2.9-0.3-4.2-0.7c-0.4,0.1-0.8,0.2-1.2,0.4c2,0.9,3.5,1.1,5.2,1.3
			c1.7,0.1,4.6-0.3,7-1.2c-0.1,0.1-0.2,0.3-0.3,0.4c-1.2,0.7-3.9,1.4-5.2,1.4c-1.3,0.1-2.9,0-4.3-0.3c-1.2-0.2-2.2-0.6-3.2-1.1
			c-0.2,0.1-0.3,0.3-0.3,0.5c4,2.2,7.7,2.2,12,0.8l-0.4,0.4c-4.7,2-8.3,1.2-11.2-0.2c-0.1,0-0.2-0.1-0.3-0.1
			c0.3,0.5,2.4,2.1,4.8,2.3c1.7,0.1,3.7-0.2,4.9-0.7l-0.7,0.4c-0.6,0.3-2.1,1-4.3,0.8c-2.9-0.2-4.5-1.5-5.2-2.2
			c-0.3-0.3-0.5-0.7-0.6-1.2c-0.7-0.4-1.1-0.7-1.4-1.3c-0.2-0.3-0.2-0.7-0.1-1c0-0.1,0-0.2,0.1-0.3c-0.3-0.2-0.6-0.5-0.8-0.7
			c-0.3-0.5-0.1-1,0.1-1.3c-0.2-0.2-0.3-0.4-0.4-0.6C12,21.4,12,21.2,12,20.9c0.1-0.4,0.3-0.9,0.6-1.2c0.6-0.8,1.6-1.3,3.3-1.9
			c1.7-0.6,2.3-0.7,3.6-1c1.5-0.4,3.2-0.5,4.7-1c-4.1-0.7-8.3-0.1-11.8,2.4L12.6,17.6z"/>
	</g>
</g>
</svg>
