<?xml version="1.0" encoding="utf-8"?>
<!-- Generator: Adobe Illustrator 25.0.0, SVG Export Plug-In . SVG Version: 6.00 Build 0)  -->
<svg version="1.1" xmlns="http://www.w3.org/2000/svg" xmlns:xlink="http://www.w3.org/1999/xlink" x="0px" y="0px"
	 viewBox="0 0 42 42" style="enable-background:new 0 0 42 42;" xml:space="preserve">
<style type="text/css">
	.st0{opacity:0.3;fill:#FFFFFF;enable-background:new    ;}
	.st1{opacity:0.3;fill:#EBF6F0;}
	.st2{opacity:0.3;fill:#F7E6E9;}
	.st3{opacity:0.3;fill:#4EA3E4;}
	.st4{opacity:0.3;fill:#D89626;}
	.st5{opacity:0.3;fill:#007AE7;}
	.st6{opacity:0.3;fill:#1F79B1;}
	.st7{opacity:0.3;fill:#00ABE8;}
	.st8{opacity:0.3;fill:#021420;}
	.st9{opacity:0.3;fill:#2E9AD0;}
	.st10{opacity:0.3;fill:#9E1F65;}
	.st11{opacity:0.3;fill:#18B9BE;}
	.st12{opacity:0.3;fill:#5F2652;}
	.st13{opacity:0.3;fill:#001A3E;}
	.st14{opacity:0.3;fill:#009A61;}
	.st15{opacity:0.3;fill:#F01010;}
	.st16{opacity:0.3;fill:#009FDF;}
	.st17{opacity:0.3;}
	.st18{opacity:0.3;fill:#F0722A;}
	.st19{opacity:0.3;fill:#0FAFAD;}
	.st20{opacity:0.3;fill:#76B729;}
	.st21{opacity:0.3;fill:#204E76;}
	.st22{opacity:0.3;fill:#5F5742;}
	.st23{opacity:0.3;fill:#ECB244;}
	.st24{opacity:0.3;fill:#015FAE;}
	.st25{opacity:0.3;fill:#F7A600;}
	.st26{opacity:0.3;fill:#2775CA;}
	.st27{opacity:0.3;fill:#5DC8BB;}
	.st28{opacity:0.3;fill:#C53027;}
	.st29{opacity:0.3;fill:#FCE527;}
	.st30{opacity:0.3;fill:#2C7DF7;}
	.st31{opacity:0.3;fill:#444343;enable-background:new    ;}
	.st32{opacity:0.3;fill:#509B47;}
	.st33{fill:url(#SVGID_1_);}
	.st34{opacity:0.3;fill:#FF9E16;}
	.st35{fill:#FFFFFF;}
	.st36{opacity:0.3;fill:#3BB054;}
	.st37{opacity:0.3;fill:#179BD7;}
	.st38{opacity:0.3;fill:#00C452;}
	.st39{opacity:0.3;fill:#F1A114;}
	.st40{opacity:0.3;fill:#FF6600;}
	.st41{opacity:0.3;fill:#FAB31E;}
	.st42{opacity:0.3;fill:#345D9D;}
	.st43{opacity:0.3;fill:#969B9E;}
	.st44{opacity:0.3;fill:#01C853;}
	.st45{opacity:0.3;fill:#FFB600;}
	.st46{opacity:0.3;fill:#008DE4;}
	.st47{opacity:0.3;fill:#F19620;}
	.st48{opacity:0.3;fill:#F90000;}
	.st49{fill:#F10000;}
	.st50{fill:#F19620;}
	.st51{fill:none;stroke:#F10000;stroke-width:0.25;stroke-miterlimit:10;}
	.st52{fill:#008DE4;}
	.st53{fill:#FFB600;}
	.st54{fill:#01C853;}
	.st55{fill:#009F42;}
	.st56{fill:#007832;}
	.st57{fill:#454749;}
	.st58{fill:#989A9C;}
	.st59{fill:#969B9E;}
	.st60{fill:#0B0809;}
	.st61{fill:#454246;}
	.st62{fill:#434343;}
	.st63{fill:#345D9D;}
	.st64{fill-rule:evenodd;clip-rule:evenodd;fill:#FFFFFF;}
	.st65{fill-rule:evenodd;clip-rule:evenodd;fill:#FAB31E;}
	.st66{fill-rule:evenodd;clip-rule:evenodd;fill:#E40520;}
	.st67{fill-rule:evenodd;clip-rule:evenodd;fill:#06326E;}
	.st68{fill-rule:evenodd;clip-rule:evenodd;fill:#4C4C4C;}
	.st69{fill:#FF6600;}
	.st70{fill:#F4F5F5;}
	.st71{fill:#F1A114;}
	.st72{fill:#62ADE4;}
	.st73{fill:#14C0AF;}
	.st74{fill:#E8EF00;}
	.st75{fill:#009066;}
	.st76{fill:#0096DD;}
	.st77{fill:#00C452;}
	.st78{fill:#A7DB38;}
	.st79{fill:#006036;}
	.st80{fill:#253B80;}
	.st81{fill:#179BD7;}
	.st82{fill:#222D65;}
	.st83{fill:#3BB054;}
	.st84{fill:#0043FA;}
	.st85{fill:#FF9E16;}
	.st86{fill:url(#SVGID_2_);}
	.st87{fill:url(#SVGID_3_);}
	.st88{fill:#2C7DF7;}
	.st89{fill:#FCE527;}
	.st90{fill:#222220;}
	.st91{fill:#C53027;}
	.st92{fill:#5DC8BB;}
	.st93{fill:#5F6161;}
	.st94{fill:#2675CA;}
	.st95{fill:#005098;}
	.st96{fill:#F7A600;}
	.st97{fill:#015FAC;}
	.st98{fill:#ECB244;}
	.st99{fill:#76B729;}
	.st100{fill:#00cdca;}
	.st101{fill:#E70027;}
	.st102{fill:#FFFEFF;}
	.st103{fill:url(#SVGID_4_);}
	.st104{fill:#509B47;}
	.st105{fill:url(#SVGID_5_);}
	
		.st106{fill-rule:evenodd;clip-rule:evenodd;fill:#5F5742;stroke:#E2DFD7;stroke-width:0.3529;stroke-linejoin:round;stroke-miterlimit:2.6131;}
	
		.st107{fill-rule:evenodd;clip-rule:evenodd;fill:#FFFFFF;stroke:#5F5742;stroke-width:9.513900e-02;stroke-linejoin:round;stroke-miterlimit:2.6131;}
	.st108{fill-rule:evenodd;clip-rule:evenodd;fill:#5F5742;}
	.st109{fill-rule:evenodd;clip-rule:evenodd;fill:#204E76;}
	.st110{fill:#F90000;}
	.st111{fill:#009FDF;}
	.st112{fill:#0A2973;}
	.st113{fill:#F01010;}
	.st114{fill:#00384F;}
	.st115{fill:#009A61;}
	.st116{fill:#001A3E;}
	.st117{fill:#18B9BE;}
	.st118{fill:#9E1F65;}
	.st119{fill:#632D8F;}
	.st120{fill:#FF5000;}
	.st121{fill:#303147;}
	.st122{fill:#1D1E35;}
	.st123{fill:#B7BBCC;}
	.st124{fill:#6B6D88;}
	.st125{fill:#B7BBCA;}
	.st126{fill:#00ABE8;}
	.st127{fill:#1F79B1;}
	.st128{fill:#007AE7;}
	.st129{fill:#062662;}
	.st130{fill:#09255B;}
	.st131{fill:#D89626;}
	.st132{fill:#4EA3E4;}
	.st133{fill:#FAF9FB;}
	.st134{fill:url(#SVGID_6_);}
	.st135{fill:url(#SVGID_7_);}
	.st136{fill:#F7E6E9;}
	.st137{fill:#E9334C;}
	.st138{fill:#F07885;}
	.st139{fill:#EBF6F0;}
	.st140{fill:url(#SVGID_8_);}
	.st141{fill:none;stroke:#81E1A5;stroke-linecap:round;stroke-linejoin:round;stroke-miterlimit:10;}
	.st142{fill:url(#SVGID_9_);}
</style>
<g id="фон">
</g>
<g id="примеры">
</g>
<g id="лого">
	<path class="st100" d="M14.9,7.4c0,0.3,0,0.6-0.1,0.8c-0.1,0.2-0.2,0.5-0.4,0.6c-0.2,0.2-0.4,0.3-0.7,0.4c-0.3,0.1-0.6,0.2-1,0.2
		h-0.5v1.8h-1.1V5.6h1.6c0.4,0,0.7,0,1,0.1c0.3,0.1,0.5,0.2,0.7,0.3c0.2,0.2,0.3,0.3,0.4,0.6C14.9,6.9,14.9,7.2,14.9,7.4z M13.8,7.5
		c0-0.1,0-0.3-0.1-0.4c0-0.1-0.1-0.2-0.2-0.3c-0.1-0.1-0.2-0.2-0.4-0.2c-0.1,0-0.3-0.1-0.5-0.1h-0.5v2.1h0.6c0.2,0,0.3,0,0.5-0.1
		c0.1-0.1,0.3-0.1,0.4-0.2s0.2-0.2,0.2-0.3C13.8,7.8,13.8,7.7,13.8,7.5z"/>
	<path class="st100" d="M18.9,11.3V8.8h-2.1v2.5h-1.2V5.6h1.2v2.3h2.1V5.6h1.2v5.6H18.9z"/>
	<path class="st100" d="M24.4,11.3l-1.9-2.7v2.7h-1.2V5.6h1.2v2.6l1.9-2.6h1.4l-2.2,2.7l2.3,3H24.4z"/>
	<path class="st100" d="M28.3,7.8c0.3,0,0.7,0,0.9,0.1c0.3,0.1,0.5,0.2,0.6,0.3c0.2,0.1,0.3,0.3,0.4,0.5c0.1,0.2,0.1,0.4,0.1,0.6
		c0,0.6-0.2,1-0.5,1.3c-0.4,0.3-0.9,0.4-1.6,0.4h-1.6V5.6h3.4v1.1h-2.1v1.1H28.3z M28.2,10.3c0.2,0,0.3,0,0.4-0.1
		c0.1,0,0.2-0.1,0.3-0.2c0.1-0.1,0.1-0.2,0.2-0.3c0-0.1,0.1-0.2,0.1-0.3c0-0.1,0-0.2-0.1-0.3c0-0.1-0.1-0.2-0.2-0.3
		c-0.1-0.1-0.2-0.1-0.3-0.2c-0.1,0-0.3-0.1-0.5-0.1h-0.3v1.6H28.2z"/>
	<path class="st100" d="M29.9,27.6v-5c-3.5,0-3.4-3.6-3.4-3.6h-1.6c-1,2.4-0.3,4-0.3,4.1l-1-0.4v-5L20,16.3L11.1,13v1.3l8.9,3.4
		l2.3,0.9l0.1,4.9l1.2,0.5l2.8,1.2l1.8,0.4l0.5,0.1v1.5l-0.5,0.2l-1.1,0.4l-1.8,0.7l-4.2-1.6v-7.4L20,19l-8.9-3.4v1.3l8.9,3.4v1.3
		l-8.9-3.4v1.2l8.9,3.4v1.2l-8.9-3.4v1.2l8.9,3.4v1.3L11.1,23v1.3l1.3,0.5l6.3,2.4l-6.3,2.4l-0.9,0.3c-0.2,0.1-0.3,0.2-0.3,0.4v5.1
		c0,0.3,0.3,0.6,0.6,0.6h10c0.3,0,0.6-0.3,0.6-0.6v-1.8c0-0.2-0.1-0.3-0.2-0.4l-1.7-0.7l0.5-0.7h2.6l1.3,3.9
		c0.1,0.2,0.2,0.3,0.4,0.3h4.2c0.3,0,0.6-0.3,0.6-0.6v-1.7c0-0.2-0.1-0.4-0.3-0.5l-1.4-0.6v-4.1l1.4-0.5
		C29.8,28,29.9,27.8,29.9,27.6z M28.7,34.1v0.6h-3l-1.4-4.2h-4L19,32.6c-0.2,0.2,0,0.6,0.2,0.7l2,0.8v0.6h-8.8v-4l7.6-2.9l0.2-0.1
		l4.9,1.9h0l2-0.7v4.6l1.1,0.4L28.7,34.1z"/>
	<path class="st100" d="M25.9,15.8c0,0.6-0.5,1.2-0.6,1.4c-0.1,0.2-0.2,0.6,0.3,0.5c0.5-0.1,0.6-0.4,1.6-0.9c1-0.5,1.4-0.7,1.6-0.8
		c0.1-0.1,0.3-0.1,0.2,0.2c-0.1,0.3-0.2,0.6,0.2,0.6c0.3,0,1.1-0.1,1,0.1c-0.1,0.2-0.1,0.4-0.4,0.3c-0.3,0-0.9-0.1-1.2,0.1
		s-0.3,0.6-0.5,0.7c-0.2,0.2-0.5,0.3-0.5,0.6c0.1,0.2,0.3,0.5,0.6,0.7c0.3,0.1,1.1,0.1,1.5,0.1c0.4,0,0.9-0.1,1.2-0.3
		c0.3-0.2,0.4-0.6,0.4-0.8c-0.1-0.2-0.4,0-0.6,0c-0.2,0-0.6,0.2-0.8,0.1c-0.3-0.1-0.1-0.4,0.1-0.5c0.2-0.1,0.4-0.1,0.8,0.1
		c0.4,0.1,0.8,0.1,0.9,0c0.1-0.1,0.2-0.6,0.5-1c0.4-0.4-0.2-0.7-0.7-1.2c-0.5-0.5-1.2-0.8-1.6-0.7c0,0-1.2-1.3-2.2-0.4
		c0,0,0-0.5-0.2-0.5c0,0-0.1-0.1-0.3,0.1c-0.2,0.2-0.5,0.2-1.1,0.6C25.9,15.2,25.9,15.6,25.9,15.8z"/>
</g>
</svg>
