<?xml version="1.0" ?>
<svg id="svg5" version="1.1" width="800px" height="800px" viewBox="0 0 100 100" xmlns="http://www.w3.org/2000/svg" xmlns:svg="http://www.w3.org/2000/svg"><defs id="defs2"/><g id="layer1" transform="translate(-407.75779,-47.675677)"><path d="m 425.67864,60.325051 v 1.01287 h -1.01288 v 1.01287 h -1.01286 v 1.01287 h -1.01292 v 1.01288 h -1.01282 v 1.01287 h -1.01286 v 2.02573 h -1.01288 v 2.02575 1.01287 h 1.01288 v 1.01287 h 3.0386 v 1.01287 h -2.02574 v 1.01287 h -1.01286 v 1.01288 1.01287 h 1.01286 v 1.01287 h 5.06437 v -1.01287 h 2.02571 v 1.01287 h 3.0386 v -1.01287 h 1.01288 v -1.01287 -1.01288 h -1.01288 v -2.02574 h 3.03863 v -1.01287 h 1.01291 v -1.01287 -2.02575 h -1.01291 v -2.02573 h -1.01287 v -1.01287 h -1.01288 v -1.01288 h -1.01288 v -1.01287 h -1.01282 v -1.01287 h -1.0129 v -1.01287 z" id="rect4659-7-5-8" style="fill:#000000;fill-opacity:0.197772;stroke-width:0.382821;stroke-linecap:round;stroke-linejoin:round;stroke-miterlimit:2"/><path d="m 424.66576,59.312181 v 1.01287 h -1.01286 v 1.01287 h -1.01292 v 1.01287 h -1.01282 v 1.01287 h 2.02574 v 1.01288 h 1.01286 v 1.01287 h 4.05148 v -1.01287 h 1.01288 v -1.01288 h 2.02572 v -1.01287 h -1.01282 v -1.01287 h -1.0129 v -1.01287 h -1.01288 v -1.01287 z m 7.09008,4.05148 v 1.01288 h -1.01282 v 2.02574 2.02574 h -3.03863 v -2.02574 h -2.02575 v 2.02574 h -3.03866 v -2.02574 -2.02574 h -1.01282 v -1.01288 h -1.01286 v 1.01288 h -1.01288 v 2.02574 h -1.01289 v 2.02574 1.01287 h 1.01289 v 1.01287 h 4.05148 v -1.01287 h 2.02574 2.02575 2.02573 v 1.01287 h 4.05148 v -1.01287 h 1.01287 v -1.01287 -2.02574 h -1.01287 v -2.02574 h -1.01288 v -1.01288 z" id="rect4659-66-3" style="fill:#e45810;fill-opacity:1;stroke-width:0.382821;stroke-linecap:round;stroke-linejoin:round;stroke-miterlimit:2"/><path d="m 421.62716,63.363661 v 1.01288 h 2.02574 v -1.01288 z m 2.02574,1.01288 v 3.0386 h 1.01286 v -1.01286 h 4.05148 v 1.01286 h 1.01288 v -3.0386 h -1.01288 v 1.01287 h -4.05148 v -1.01287 z m 6.07722,0 h 2.02572 v -1.01288 h -2.02572 z m -9.11582,7.09009 v 1.01287 h -1.01288 v 1.01287 1.01288 h 1.01288 v 1.01287 h 5.06434 v -1.01287 -1.01288 h -1.01288 v -1.01287 h -2.02578 v -1.01287 z m 9.11582,1.01287 v 1.01287 h -1.01288 v 1.01288 h -1.01285 v 1.01287 h 3.03863 v -1.01287 h 1.01282 v -1.01288 -1.01287 z" id="rect12405-04-8" style="fill:#333333;fill-opacity:1;stroke-width:0.382821;stroke-linecap:round;stroke-linejoin:round;stroke-miterlimit:2"/><path d="m 422.63998,64.376541 v 4.05148 h 1.01292 2.02574 v -1.01288 -1.01286 h -1.01288 v 1.01286 h -1.01286 v -3.0386 z m 7.09014,0 v 3.0386 h -1.01288 v -1.01286 h -1.01285 v 1.01286 1.01288 h 3.03863 v -1.01288 -3.0386 z m -6.07722,5.06435 v 1.01287 h -1.01292 v 2.02574 h 2.02578 v 1.01287 h 1.01288 v 1.01288 h 3.0386 v -1.01288 h 1.01288 v -1.01287 h 1.0129 v -2.02574 h -1.0129 v -1.01287 z" id="rect21179-9-7" style="fill:#f4d4b4;fill-opacity:1;stroke-width:0.382821;stroke-linecap:round;stroke-linejoin:round;stroke-miterlimit:2"/></g></svg>